<?xml version="1.0" encoding="iso-8859-1"?>
<!-- Generator: Adobe Illustrator 19.0.0, SVG Export Plug-In . SVG Version: 6.00 Build 0)  -->
<svg version="1.1" id="Capa_1" xmlns="http://www.w3.org/2000/svg" xmlns:xlink="http://www.w3.org/1999/xlink" x="0px" y="0px"
	 viewBox="0 0 512 512" style="enable-background:new 0 0 512 512;" xml:space="preserve">
<g>
	<g>
		<path d="M437.02,74.98C388.668,26.629,324.38,0,256,0S123.332,26.629,74.98,74.98C26.628,123.331,0,187.62,0,256
			s26.629,132.668,74.98,181.02C123.331,485.372,187.62,512,256,512s132.668-26.629,181.02-74.98
			C485.372,388.669,512,324.38,512,256S485.371,123.332,437.02,74.98z M256,497C123.112,497,15,388.888,15,256S123.112,15,256,15
			s241,108.112,241,241S388.888,497,256,497z"/>
	</g>
</g>
<g>
	<g>
		<path d="M414.885,141.223c-1.287-1.78-3.291-2.906-5.48-3.081c-2.183-0.173-4.347,0.619-5.9,2.173l-263.19,263.189
			c-1.553,1.554-2.348,3.71-2.173,5.9c0.175,2.189,1.302,4.193,3.081,5.48c33.485,24.217,73.18,37.019,114.791,37.021
			c52.408,0,101.619-20.354,138.578-57.313c33.102-33.103,53.26-77.075,56.761-123.817
			C454.815,224.537,441.864,178.528,414.885,141.223z M383.985,383.986c-34.127,34.127-79.574,52.921-127.97,52.919
			c-35.458-0.002-69.401-10.06-98.717-29.171l250.438-250.439C454.488,228.871,445.093,322.879,383.985,383.986z"/>
	</g>
</g>
<g>
	<g>
		<path d="M373.857,102.595c-0.175-2.189-1.302-4.193-3.081-5.48c-35.162-25.431-78.567-38.521-122.247-36.874
			c-43.903,1.661-86.397,18.205-119.654,46.585c-3.151,2.688-3.525,7.423-0.837,10.573c2.688,3.151,7.422,3.525,10.573,0.837
			c61.433-52.422,149.076-57.706,216.092-13.973l-250.439,250.44c-43.735-67.017-38.45-154.661,13.972-216.091
			c2.688-3.15,2.314-7.885-0.837-10.573c-3.15-2.688-7.885-2.313-10.573,0.837c-28.38,33.256-44.924,75.75-46.585,119.653
			c-1.651,43.67,11.444,87.085,36.875,122.247c1.287,1.78,3.291,2.906,5.48,3.081c0.2,0.016,0.398,0.023,0.598,0.023
			c1.98,0,3.891-0.785,5.303-2.196l263.188-263.189C373.237,106.941,374.032,104.785,373.857,102.595z"/>
	</g>
</g>
<g>
</g>
<g>
</g>
<g>
</g>
<g>
</g>
<g>
</g>
<g>
</g>
<g>
</g>
<g>
</g>
<g>
</g>
<g>
</g>
<g>
</g>
<g>
</g>
<g>
</g>
<g>
</g>
<g>
</g>
</svg>
